<mxfile host="65bd71144e">
    <diagram id="a0XAqbzJnYiUwKA8N0T5" name="Page-1">
        <mxGraphModel dx="1239" dy="646" grid="1" gridSize="10" guides="1" tooltips="1" connect="1" arrows="1" fold="1" page="1" pageScale="1" pageWidth="827" pageHeight="1169" math="0" shadow="0">
            <root>
                <mxCell id="0"/>
                <mxCell id="1" parent="0"/>
                <mxCell id="51" style="edgeStyle=orthogonalEdgeStyle;html=1;entryX=0.5;entryY=0;entryDx=0;entryDy=0;" parent="1" source="2" target="46" edge="1">
                    <mxGeometry relative="1" as="geometry">
                        <Array as="points">
                            <mxPoint x="40" y="205"/>
                            <mxPoint x="40" y="265"/>
                            <mxPoint x="81" y="265"/>
                        </Array>
                    </mxGeometry>
                </mxCell>
                <mxCell id="53" style="edgeStyle=orthogonalEdgeStyle;html=1;entryX=0;entryY=0.5;entryDx=0;entryDy=0;" parent="1" source="2" target="47" edge="1">
                    <mxGeometry relative="1" as="geometry"/>
                </mxCell>
                <mxCell id="2" value="Book" style="rounded=1;whiteSpace=wrap;html=1;" parent="1" vertex="1">
                    <mxGeometry x="80" y="180" width="240" height="50" as="geometry"/>
                </mxCell>
                <mxCell id="8" style="edgeStyle=orthogonalEdgeStyle;html=1;entryX=0.5;entryY=0;entryDx=0;entryDy=0;" parent="1" source="3" target="2" edge="1">
                    <mxGeometry relative="1" as="geometry">
                        <mxPoint x="220" y="200" as="targetPoint"/>
                        <Array as="points">
                            <mxPoint x="210" y="95"/>
                            <mxPoint x="210" y="120"/>
                            <mxPoint x="200" y="120"/>
                        </Array>
                    </mxGeometry>
                </mxCell>
                <mxCell id="3" value="description" style="ellipse;whiteSpace=wrap;html=1;" parent="1" vertex="1">
                    <mxGeometry x="239" y="80" width="80" height="30" as="geometry"/>
                </mxCell>
                <mxCell id="7" style="edgeStyle=orthogonalEdgeStyle;html=1;entryX=0.5;entryY=0;entryDx=0;entryDy=0;" parent="1" source="4" target="2" edge="1">
                    <mxGeometry relative="1" as="geometry">
                        <mxPoint x="180" y="200" as="targetPoint"/>
                        <Array as="points">
                            <mxPoint x="190" y="95"/>
                            <mxPoint x="190" y="120"/>
                            <mxPoint x="200" y="120"/>
                        </Array>
                    </mxGeometry>
                </mxCell>
                <mxCell id="4" value="book_id" style="ellipse;whiteSpace=wrap;html=1;" parent="1" vertex="1">
                    <mxGeometry x="80" y="80" width="80" height="30" as="geometry"/>
                </mxCell>
                <mxCell id="12" style="edgeStyle=orthogonalEdgeStyle;html=1;" parent="1" source="5" edge="1">
                    <mxGeometry relative="1" as="geometry">
                        <mxPoint x="200" y="180" as="targetPoint"/>
                        <Array as="points">
                            <mxPoint x="180" y="135"/>
                            <mxPoint x="180" y="160"/>
                            <mxPoint x="200" y="160"/>
                        </Array>
                    </mxGeometry>
                </mxCell>
                <mxCell id="5" value="title" style="ellipse;whiteSpace=wrap;html=1;" parent="1" vertex="1">
                    <mxGeometry x="80" y="120" width="80" height="30" as="geometry"/>
                </mxCell>
                <mxCell id="13" style="edgeStyle=orthogonalEdgeStyle;html=1;entryX=0.5;entryY=0;entryDx=0;entryDy=0;" parent="1" source="6" target="2" edge="1">
                    <mxGeometry relative="1" as="geometry">
                        <mxPoint x="229.9999999999999" y="200" as="targetPoint"/>
                        <Array as="points">
                            <mxPoint x="220" y="135"/>
                            <mxPoint x="220" y="160"/>
                            <mxPoint x="200" y="160"/>
                        </Array>
                    </mxGeometry>
                </mxCell>
                <mxCell id="6" value="price" style="ellipse;whiteSpace=wrap;html=1;" parent="1" vertex="1">
                    <mxGeometry x="239" y="120" width="80" height="30" as="geometry"/>
                </mxCell>
                <mxCell id="14" value="Book details" style="rounded=1;whiteSpace=wrap;html=1;" parent="1" vertex="1">
                    <mxGeometry x="540" y="180" width="240" height="50" as="geometry"/>
                </mxCell>
                <mxCell id="15" style="edgeStyle=orthogonalEdgeStyle;html=1;entryX=0.5;entryY=0;entryDx=0;entryDy=0;" parent="1" source="16" target="14" edge="1">
                    <mxGeometry relative="1" as="geometry">
                        <mxPoint x="680" y="200" as="targetPoint"/>
                        <Array as="points">
                            <mxPoint x="670" y="95"/>
                            <mxPoint x="670" y="120"/>
                            <mxPoint x="660" y="120"/>
                        </Array>
                    </mxGeometry>
                </mxCell>
                <mxCell id="16" value="rating" style="ellipse;whiteSpace=wrap;html=1;" parent="1" vertex="1">
                    <mxGeometry x="699" y="80" width="80" height="30" as="geometry"/>
                </mxCell>
                <mxCell id="17" style="edgeStyle=orthogonalEdgeStyle;html=1;entryX=0.5;entryY=0;entryDx=0;entryDy=0;" parent="1" source="18" target="14" edge="1">
                    <mxGeometry relative="1" as="geometry">
                        <mxPoint x="640" y="200" as="targetPoint"/>
                        <Array as="points">
                            <mxPoint x="650" y="95"/>
                            <mxPoint x="650" y="120"/>
                            <mxPoint x="660" y="120"/>
                        </Array>
                    </mxGeometry>
                </mxCell>
                <mxCell id="18" value="start_read" style="ellipse;whiteSpace=wrap;html=1;" parent="1" vertex="1">
                    <mxGeometry x="540" y="80" width="80" height="30" as="geometry"/>
                </mxCell>
                <mxCell id="19" style="edgeStyle=orthogonalEdgeStyle;html=1;" parent="1" source="20" edge="1">
                    <mxGeometry relative="1" as="geometry">
                        <mxPoint x="660" y="180" as="targetPoint"/>
                        <Array as="points">
                            <mxPoint x="640" y="135"/>
                            <mxPoint x="640" y="160"/>
                            <mxPoint x="660" y="160"/>
                        </Array>
                    </mxGeometry>
                </mxCell>
                <mxCell id="20" value="end_read" style="ellipse;whiteSpace=wrap;html=1;" parent="1" vertex="1">
                    <mxGeometry x="540" y="120" width="80" height="30" as="geometry"/>
                </mxCell>
                <mxCell id="21" style="edgeStyle=orthogonalEdgeStyle;html=1;entryX=0.5;entryY=0;entryDx=0;entryDy=0;" parent="1" source="22" target="14" edge="1">
                    <mxGeometry relative="1" as="geometry">
                        <mxPoint x="689.9999999999999" y="200" as="targetPoint"/>
                        <Array as="points">
                            <mxPoint x="680" y="135"/>
                            <mxPoint x="680" y="160"/>
                            <mxPoint x="660" y="160"/>
                        </Array>
                    </mxGeometry>
                </mxCell>
                <mxCell id="22" value="public_year" style="ellipse;whiteSpace=wrap;html=1;" parent="1" vertex="1">
                    <mxGeometry x="699" y="120" width="80" height="30" as="geometry"/>
                </mxCell>
                <mxCell id="23" value="Autor" style="rounded=1;whiteSpace=wrap;html=1;" parent="1" vertex="1">
                    <mxGeometry x="80" y="521" width="240" height="50" as="geometry"/>
                </mxCell>
                <mxCell id="24" style="edgeStyle=orthogonalEdgeStyle;html=1;entryX=0.5;entryY=0;entryDx=0;entryDy=0;" parent="1" source="25" target="23" edge="1">
                    <mxGeometry relative="1" as="geometry">
                        <mxPoint x="220" y="541" as="targetPoint"/>
                        <Array as="points">
                            <mxPoint x="210" y="436"/>
                            <mxPoint x="210" y="461"/>
                            <mxPoint x="200" y="461"/>
                        </Array>
                    </mxGeometry>
                </mxCell>
                <mxCell id="25" value="first_name" style="ellipse;whiteSpace=wrap;html=1;" parent="1" vertex="1">
                    <mxGeometry x="239" y="421" width="80" height="30" as="geometry"/>
                </mxCell>
                <mxCell id="26" style="edgeStyle=orthogonalEdgeStyle;html=1;entryX=0.5;entryY=0;entryDx=0;entryDy=0;" parent="1" source="27" target="23" edge="1">
                    <mxGeometry relative="1" as="geometry">
                        <mxPoint x="180" y="541" as="targetPoint"/>
                        <Array as="points">
                            <mxPoint x="190" y="436"/>
                            <mxPoint x="190" y="461"/>
                            <mxPoint x="200" y="461"/>
                        </Array>
                    </mxGeometry>
                </mxCell>
                <mxCell id="27" value="autor_id" style="ellipse;whiteSpace=wrap;html=1;" parent="1" vertex="1">
                    <mxGeometry x="80" y="421" width="80" height="30" as="geometry"/>
                </mxCell>
                <mxCell id="28" style="edgeStyle=orthogonalEdgeStyle;html=1;" parent="1" source="29" edge="1">
                    <mxGeometry relative="1" as="geometry">
                        <mxPoint x="200" y="521" as="targetPoint"/>
                        <Array as="points">
                            <mxPoint x="180" y="476"/>
                            <mxPoint x="180" y="501"/>
                            <mxPoint x="200" y="501"/>
                        </Array>
                    </mxGeometry>
                </mxCell>
                <mxCell id="29" value="email" style="ellipse;whiteSpace=wrap;html=1;" parent="1" vertex="1">
                    <mxGeometry x="80" y="461" width="80" height="30" as="geometry"/>
                </mxCell>
                <mxCell id="30" style="edgeStyle=orthogonalEdgeStyle;html=1;entryX=0.5;entryY=0;entryDx=0;entryDy=0;" parent="1" source="31" target="23" edge="1">
                    <mxGeometry relative="1" as="geometry">
                        <mxPoint x="229.9999999999999" y="541" as="targetPoint"/>
                        <Array as="points">
                            <mxPoint x="220" y="476"/>
                            <mxPoint x="220" y="501"/>
                            <mxPoint x="200" y="501"/>
                        </Array>
                    </mxGeometry>
                </mxCell>
                <mxCell id="31" value="last_name" style="ellipse;whiteSpace=wrap;html=1;" parent="1" vertex="1">
                    <mxGeometry x="239" y="461" width="80" height="30" as="geometry"/>
                </mxCell>
                <mxCell id="36" style="edgeStyle=orthogonalEdgeStyle;html=1;entryX=0.5;entryY=-0.011;entryDx=0;entryDy=0;entryPerimeter=0;" parent="1" source="32" target="14" edge="1">
                    <mxGeometry relative="1" as="geometry">
                        <mxPoint x="660" y="170" as="targetPoint"/>
                        <Array as="points">
                            <mxPoint x="680" y="55"/>
                            <mxPoint x="680" y="80"/>
                            <mxPoint x="660" y="80"/>
                        </Array>
                    </mxGeometry>
                </mxCell>
                <mxCell id="32" value="???" style="ellipse;whiteSpace=wrap;html=1;" parent="1" vertex="1">
                    <mxGeometry x="699" y="40" width="80" height="30" as="geometry"/>
                </mxCell>
                <mxCell id="34" style="edgeStyle=orthogonalEdgeStyle;html=1;entryX=0.5;entryY=0;entryDx=0;entryDy=0;" parent="1" source="33" target="14" edge="1">
                    <mxGeometry relative="1" as="geometry">
                        <Array as="points">
                            <mxPoint x="640" y="55"/>
                            <mxPoint x="640" y="80"/>
                            <mxPoint x="660" y="80"/>
                        </Array>
                    </mxGeometry>
                </mxCell>
                <mxCell id="33" value="b_detail_id" style="ellipse;whiteSpace=wrap;html=1;" parent="1" vertex="1">
                    <mxGeometry x="540" y="40" width="80" height="30" as="geometry"/>
                </mxCell>
                <mxCell id="37" value="Publisher" style="rounded=1;whiteSpace=wrap;html=1;" parent="1" vertex="1">
                    <mxGeometry x="540" y="521" width="240" height="50" as="geometry"/>
                </mxCell>
                <mxCell id="38" style="edgeStyle=orthogonalEdgeStyle;html=1;entryX=0.5;entryY=0;entryDx=0;entryDy=0;" parent="1" source="39" target="37" edge="1">
                    <mxGeometry relative="1" as="geometry">
                        <mxPoint x="680" y="541" as="targetPoint"/>
                        <Array as="points">
                            <mxPoint x="670" y="436"/>
                            <mxPoint x="670" y="461"/>
                            <mxPoint x="660" y="461"/>
                        </Array>
                    </mxGeometry>
                </mxCell>
                <mxCell id="39" value="pub_name" style="ellipse;whiteSpace=wrap;html=1;" parent="1" vertex="1">
                    <mxGeometry x="699" y="421" width="80" height="30" as="geometry"/>
                </mxCell>
                <mxCell id="40" style="edgeStyle=orthogonalEdgeStyle;html=1;entryX=0.5;entryY=0;entryDx=0;entryDy=0;" parent="1" source="41" target="37" edge="1">
                    <mxGeometry relative="1" as="geometry">
                        <mxPoint x="640" y="541" as="targetPoint"/>
                        <Array as="points">
                            <mxPoint x="650" y="436"/>
                            <mxPoint x="650" y="461"/>
                            <mxPoint x="660" y="461"/>
                        </Array>
                    </mxGeometry>
                </mxCell>
                <mxCell id="41" value="pub_id" style="ellipse;whiteSpace=wrap;html=1;" parent="1" vertex="1">
                    <mxGeometry x="540" y="421" width="80" height="30" as="geometry"/>
                </mxCell>
                <mxCell id="42" style="edgeStyle=orthogonalEdgeStyle;html=1;" parent="1" source="43" edge="1">
                    <mxGeometry relative="1" as="geometry">
                        <mxPoint x="660" y="521" as="targetPoint"/>
                        <Array as="points">
                            <mxPoint x="640" y="476"/>
                            <mxPoint x="640" y="501"/>
                            <mxPoint x="660" y="501"/>
                        </Array>
                    </mxGeometry>
                </mxCell>
                <mxCell id="43" value="email" style="ellipse;whiteSpace=wrap;html=1;" parent="1" vertex="1">
                    <mxGeometry x="540" y="461" width="80" height="30" as="geometry"/>
                </mxCell>
                <mxCell id="44" style="edgeStyle=orthogonalEdgeStyle;html=1;entryX=0.5;entryY=0;entryDx=0;entryDy=0;" parent="1" source="45" target="37" edge="1">
                    <mxGeometry relative="1" as="geometry">
                        <mxPoint x="689.9999999999999" y="541" as="targetPoint"/>
                        <Array as="points">
                            <mxPoint x="680" y="476"/>
                            <mxPoint x="680" y="501"/>
                            <mxPoint x="660" y="501"/>
                        </Array>
                    </mxGeometry>
                </mxCell>
                <mxCell id="45" value="" style="ellipse;whiteSpace=wrap;html=1;" parent="1" vertex="1">
                    <mxGeometry x="699" y="461" width="80" height="30" as="geometry"/>
                </mxCell>
                <mxCell id="52" style="edgeStyle=orthogonalEdgeStyle;html=1;entryX=0.5;entryY=1;entryDx=0;entryDy=0;" parent="1" source="46" target="23" edge="1">
                    <mxGeometry relative="1" as="geometry">
                        <Array as="points">
                            <mxPoint x="81" y="410"/>
                            <mxPoint x="40" y="410"/>
                            <mxPoint x="40" y="600"/>
                            <mxPoint x="200" y="600"/>
                        </Array>
                    </mxGeometry>
                </mxCell>
                <mxCell id="46" value="written_by" style="rhombus;whiteSpace=wrap;html=1;" parent="1" vertex="1">
                    <mxGeometry x="40" y="300" width="81" height="80" as="geometry"/>
                </mxCell>
                <mxCell id="55" value="" style="edgeStyle=orthogonalEdgeStyle;html=1;" parent="1" source="47" target="14" edge="1">
                    <mxGeometry relative="1" as="geometry"/>
                </mxCell>
                <mxCell id="47" value="has" style="rhombus;whiteSpace=wrap;html=1;" parent="1" vertex="1">
                    <mxGeometry x="390" y="180" width="40" height="40" as="geometry"/>
                </mxCell>
                <mxCell id="56" value="" style="edgeStyle=orthogonalEdgeStyle;html=1;" parent="1" source="48" target="2" edge="1">
                    <mxGeometry relative="1" as="geometry">
                        <Array as="points">
                            <mxPoint x="200" y="300"/>
                        </Array>
                    </mxGeometry>
                </mxCell>
                <mxCell id="57" style="edgeStyle=orthogonalEdgeStyle;html=1;entryX=0;entryY=0.5;entryDx=0;entryDy=0;" parent="1" source="48" target="37" edge="1">
                    <mxGeometry relative="1" as="geometry"/>
                </mxCell>
                <mxCell id="48" value="has" style="rhombus;whiteSpace=wrap;html=1;" parent="1" vertex="1">
                    <mxGeometry x="220" y="280" width="40" height="40" as="geometry"/>
                </mxCell>
            </root>
        </mxGraphModel>
    </diagram>
</mxfile>